<svg width="19" height="19" viewBox="0 0 19 19" fill="none" xmlns="http://www.w3.org/2000/svg">
<path d="M13.1575 2.3669C13.0656 2.27474 12.9564 2.20163 12.8362 2.15174C12.7159 2.10185 12.587 2.07617 12.4569 2.07617C12.3267 2.07617 12.1978 2.10185 12.0776 2.15174C11.9574 2.20163 11.8482 2.27474 11.7563 2.3669L5.1775 8.94565C5.10411 9.01889 5.04589 9.10588 5.00616 9.20165C4.96643 9.29743 4.94598 9.40009 4.94598 9.50377C4.94598 9.60746 4.96643 9.71012 5.00616 9.80589C5.04589 9.90166 5.10411 9.98866 5.1775 10.0619L11.7563 16.6406C12.1442 17.0286 12.7696 17.0286 13.1575 16.6406C13.5454 16.2527 13.5454 15.6273 13.1575 15.2394L7.42584 9.49982L13.1654 3.76023C13.5454 3.38023 13.5454 2.7469 13.1575 2.3669Z" fill="#1E232C" stroke="#1E232C" stroke-width="0.2"/>
</svg>
