<svg width="100" height="100" viewBox="0 0 100 100" fill="none" xmlns="http://www.w3.org/2000/svg">
<path d="M96.48 49.9991C98.0244 48.2007 99.1066 46.0526 99.6329 43.7412C100.159 41.4298 100.113 39.0249 99.4999 36.7351C98.8863 34.4453 97.7233 32.3399 96.1117 30.6013C94.5002 28.8628 92.4889 27.5437 90.2521 26.7585C90.6904 24.4287 90.5536 22.0272 89.8535 19.7622C89.1535 17.4973 87.9114 15.4374 86.235 13.7612C84.5586 12.085 82.4985 10.8432 80.2335 10.1434C77.9685 9.44367 75.5669 9.30716 73.2372 9.74571C72.4526 7.50847 71.1337 5.49656 69.3952 3.88465C67.6566 2.27273 65.5509 1.10955 63.2608 0.496087C60.9707 -0.11738 58.5655 -0.162587 56.254 0.364391C53.9424 0.891369 51.7945 1.9746 49.9966 3.52005C48.1981 1.97567 46.05 0.893409 43.7386 0.367159C41.4272 -0.159091 39.0223 -0.113439 36.7326 0.500154C34.4428 1.11375 32.3373 2.27675 30.5988 3.88827C28.8603 5.49979 27.5412 7.51115 26.756 9.74788C24.4263 9.31003 22.025 9.44716 19.7604 10.1474C17.4958 10.8476 15.4362 12.0897 13.7602 13.7661C12.0843 15.4425 10.8427 17.5024 10.143 19.7672C9.44341 22.032 9.3069 24.4333 9.74534 26.7628C7.50861 27.548 5.49724 28.8671 3.88572 30.6057C2.2742 32.3442 1.11119 34.4497 0.497601 36.7394C-0.115991 39.0292 -0.16165 41.4341 0.3646 43.7455C0.89085 46.0569 1.97313 48.205 3.51751 50.0034C1.97266 51.8018 0.890047 53.9501 0.363648 56.2617C-0.162752 58.5734 -0.117053 60.9785 0.496808 63.2685C1.11067 65.5585 2.27412 67.664 3.8862 69.4024C5.49827 71.1408 7.51026 72.4595 9.74751 73.2441C9.30869 75.5736 9.44504 77.9751 10.1448 80.2401C10.8445 82.505 12.0864 84.5649 13.7628 86.241C15.4391 87.9172 17.4992 89.1588 19.7642 89.8583C22.0293 90.5577 24.4308 90.6938 26.7603 90.2547C27.5455 92.4914 28.8646 94.5028 30.6031 96.1143C32.3417 97.7258 34.4471 98.8888 36.7369 99.5024C39.0267 100.116 41.4316 100.162 43.743 99.6354C46.0543 99.1091 48.2025 98.0269 50.0009 96.4825C51.7993 98.0273 53.9476 99.11 56.2592 99.6364C58.5708 100.163 60.976 100.117 63.266 99.5032C65.5559 98.8893 67.6615 97.7259 69.3999 96.1138C71.1383 94.5017 72.457 92.4897 73.2415 90.2525C75.5712 90.6912 77.9727 90.5547 80.2377 89.855C82.5026 89.1553 84.5626 87.9134 86.2389 86.2371C87.9152 84.5609 89.1571 82.5009 89.8568 80.2359C90.5566 77.9709 90.693 75.5694 90.2543 73.2397C92.4912 72.4547 94.5027 71.1356 96.1143 69.397C97.7259 67.6584 98.8889 65.5528 99.5023 63.2629C100.116 60.973 100.161 58.568 99.6344 56.2566C99.1077 53.9452 98.0249 51.7972 96.48 49.9991Z" fill="#18C07A"/>
<path d="M41.0233 69.0856L27.1288 55.1997C26.6014 54.6715 26.3052 53.9557 26.3052 53.2093C26.3052 52.463 26.6014 51.7472 27.1288 51.219L28.8168 49.5288C29.345 49.0014 30.0608 48.7053 30.8072 48.7053C31.5535 48.7053 32.2694 49.0014 32.7975 49.5288L42.8977 59.6225L66.6844 34.3449C67.1962 33.8018 67.9026 33.484 68.6486 33.4613C69.3945 33.4385 70.119 33.7127 70.6629 34.2235L72.3965 35.8596C72.9402 36.3715 73.2584 37.0784 73.2812 37.8248C73.304 38.5713 73.0294 39.2962 72.5178 39.8403L45.0712 69.0227C44.8128 69.2981 44.5016 69.5188 44.1562 69.6715C43.8108 69.8243 43.4382 69.906 43.0605 69.9119C42.6829 69.9177 42.308 69.8476 41.958 69.7057C41.608 69.5637 41.2901 69.3528 41.0233 69.0856Z" fill="white"/>
</svg>
