<svg width="10" height="10" viewBox="0 0 10 10" fill="none" xmlns="http://www.w3.org/2000/svg">
<path d="M8.6 2.28589H1.4C0.902944 2.28589 0.5 2.6857 0.5 3.17889V7.64392C0.5 8.13711 0.902944 8.53693 1.4 8.53693H8.6C9.09706 8.53693 9.5 8.13711 9.5 7.64392V3.17889C9.5 2.6857 9.09706 2.28589 8.6 2.28589Z" fill="#292F3F" stroke="white" stroke-linecap="round" stroke-linejoin="round"/>
<path d="M6.8 8.53705V1.39301C6.8 1.15617 6.70518 0.929026 6.53639 0.761555C6.36761 0.594084 6.13869 0.5 5.9 0.5H4.1C3.8613 0.5 3.63238 0.594084 3.4636 0.761555C3.29482 0.929026 3.2 1.15617 3.2 1.39301V8.53705" fill="#292F3F"/>
<path d="M6.8 8.53705V1.39301C6.8 1.15617 6.70518 0.929026 6.53639 0.761555C6.36761 0.594084 6.13869 0.5 5.9 0.5H4.1C3.8613 0.5 3.63238 0.594084 3.4636 0.761555C3.29482 0.929026 3.2 1.15617 3.2 1.39301V8.53705" stroke="white" stroke-linecap="round" stroke-linejoin="round"/>
</svg>
