<svg width="26" height="26" viewBox="0 0 26 26" fill="none" xmlns="http://www.w3.org/2000/svg">
<g clip-path="url(#clip0_336_2133)">
<path d="M7.66838 25.5134C7.15576 25.1724 6.70144 24.751 6.32288 24.2654C5.90646 23.7642 5.52064 23.2384 5.1675 22.6908C4.33882 21.4767 3.68894 20.1499 3.23782 18.751C2.69588 17.126 2.43344 15.5684 2.43344 14.045C2.43344 12.3436 2.8015 10.8583 3.52138 9.61033C4.05501 8.63488 4.83959 7.81972 5.79394 7.24921C6.71882 6.67474 7.78151 6.36037 8.87007 6.33921C9.25113 6.33921 9.66144 6.39446 10.0969 6.50008C10.4098 6.58864 10.7908 6.72839 11.2564 6.90227C11.8487 7.13058 12.1745 7.27033 12.285 7.30446C12.6319 7.43121 12.9236 7.48645 13.1528 7.48645C13.3266 7.48645 13.572 7.43121 13.8507 7.34671C14.0075 7.29146 14.3033 7.19395 14.7266 7.01277C15.1458 6.86002 15.4757 6.72921 15.7381 6.63171C16.1403 6.51308 16.5295 6.40339 16.8764 6.34814C17.2877 6.2833 17.7051 6.26612 18.1204 6.29696C18.8399 6.34399 19.5487 6.49647 20.2239 6.74952C21.3281 7.19396 22.2211 7.88783 22.8857 8.87421C22.6048 9.04735 22.3411 9.24705 22.0984 9.47058C21.5699 9.93905 21.1198 10.489 20.7651 11.0996C20.3014 11.9341 20.061 12.8742 20.0671 13.8288C20.0842 15.0013 20.3848 16.034 20.9771 16.9269C21.4126 17.5887 21.9785 18.1546 22.6403 18.5901C22.9791 18.8184 23.2708 18.9752 23.5503 19.0808C23.4195 19.4871 23.2797 19.8803 23.1148 20.2703C22.7407 21.1449 22.2874 21.9834 21.7604 22.7753C21.2908 23.457 20.9227 23.9648 20.6432 24.3028C20.2077 24.8187 19.7884 25.2128 19.3651 25.4874C18.8996 25.7961 18.3495 25.9611 17.7905 25.9611C17.4119 25.9756 17.0334 25.9298 16.6693 25.8254C16.3564 25.7198 16.0469 25.6052 15.7422 25.4744C15.4254 25.3289 15.0988 25.2059 14.7648 25.1063C13.939 24.8942 13.0732 24.8928 12.2468 25.1023C11.908 25.1998 11.5822 25.3135 11.2604 25.4533C10.8079 25.6434 10.5073 25.771 10.3334 25.8254C9.98644 25.927 9.6265 25.9903 9.2625 26.0115C8.69944 26.0115 8.17456 25.8506 7.65457 25.5248L7.66838 25.5134ZM15.0946 5.5137C14.3585 5.88177 13.6557 6.03858 12.9578 5.98739C12.8481 5.28458 12.9578 4.56552 13.2494 3.77821C13.4978 3.1112 13.8647 2.4946 14.3325 1.95821C14.8265 1.39354 15.426 0.930698 16.0973 0.595643C16.8123 0.22758 17.4939 0.0285176 18.1456 -0.000732422C18.2301 0.735393 18.1456 1.45933 17.875 2.24177C17.6246 2.93344 17.2584 3.57746 16.7919 4.14627C16.3159 4.71171 15.7316 5.17634 15.0735 5.51289L15.0946 5.5137Z" fill="black"/>
</g>
<defs>
<clipPath id="clip0_336_2133">
<rect width="26" height="26" fill="white"/>
</clipPath>
</defs>
</svg>
