<svg width="10" height="12" viewBox="0 0 10 12" fill="none" xmlns="http://www.w3.org/2000/svg">
<path d="M9.5 4.96503C9.5 8.43782 5 11.4145 5 11.4145C5 11.4145 0.5 8.43782 0.5 4.96503C0.5 3.78083 0.974106 2.64513 1.81802 1.80778C2.66193 0.970421 3.80653 0.5 5 0.5C6.19347 0.5 7.33807 0.970421 8.18198 1.80778C9.02589 2.64513 9.5 3.78083 9.5 4.96503Z" fill="#292F3F" stroke="white" stroke-linecap="round" stroke-linejoin="round"/>
<path d="M5 6.45325C5.82843 6.45325 6.5 5.78689 6.5 4.9649C6.5 4.14292 5.82843 3.47656 5 3.47656C4.17157 3.47656 3.5 4.14292 3.5 4.9649C3.5 5.78689 4.17157 6.45325 5 6.45325Z" fill="#292F3F" stroke="white" stroke-linecap="round" stroke-linejoin="round"/>
</svg>
