<svg width="16" height="14" viewBox="0 0 16 14" fill="none" xmlns="http://www.w3.org/2000/svg">
<path fill-rule="evenodd" clip-rule="evenodd" d="M6.88345 1.67483C7.06363 1.85501 7.22146 2.04906 7.35696 2.25356C7.37015 2.27347 7.39831 2.27649 7.41521 2.25959C7.42984 2.24496 7.45358 2.24496 7.46821 2.25959L7.74716 2.53854C7.97243 2.7638 8.36085 2.67622 8.51958 2.40001C8.6796 2.12155 8.8786 1.85937 9.11656 1.6214C10.5696 0.168322 12.9256 0.168322 14.3786 1.6214C15.8317 3.07449 15.8317 5.4304 14.3786 6.88348C14.3638 6.89814 14.3638 6.92204 14.3785 6.93677L14.6183 7.17656C14.7647 7.32302 14.7647 7.56047 14.6183 7.70693L9.02538 13.2998C8.93938 13.3858 8.79996 13.3858 8.71397 13.2998C8.62798 13.2138 8.48856 13.2138 8.40256 13.2998L8.37585 13.3266C8.27511 13.4273 8.11177 13.4273 8.01102 13.3266L2.20614 7.52167C2.1915 7.50703 2.1915 7.4833 2.20614 7.46866C2.22303 7.45177 2.22002 7.42361 2.2001 7.41041C1.99561 7.27492 1.80155 7.11708 1.62137 6.93691C0.16829 5.48382 0.16829 3.12791 1.62137 1.67483C3.07445 0.221746 5.43037 0.221746 6.88345 1.67483Z" fill="white"/>
<path d="M9.11656 1.6214L8.7407 1.24554L9.11656 1.6214ZM9.02538 13.2998L8.64951 12.924L9.02538 13.2998ZM14.6183 7.70693L14.2424 7.33106L14.6183 7.70693ZM2.2001 7.41041L2.4937 6.9673L2.2001 7.41041ZM7.35696 2.25356L6.91384 2.54715L7.35696 2.25356ZM7.80007 1.95996C7.64507 1.72603 7.46474 1.50439 7.25931 1.29897L6.50759 2.05069C6.66251 2.20562 6.79785 2.37209 6.91384 2.54715L7.80007 1.95996ZM8.12302 2.16268L7.84408 1.88373L7.09235 2.63546L7.3713 2.9144L8.12302 2.16268ZM8.7407 1.24554C8.46933 1.51691 8.24184 1.81648 8.05871 2.13516L8.98045 2.66486C9.11736 2.42661 9.28786 2.20183 9.49242 1.99727L8.7407 1.24554ZM14.7545 1.24554C13.0938 -0.415124 10.4014 -0.415124 8.7407 1.24554L9.49242 1.99727C10.7379 0.751768 12.7573 0.751768 14.0028 1.99727L14.7545 1.24554ZM14.7545 7.25934C16.4152 5.59868 16.4152 2.90621 14.7545 1.24554L14.0028 1.99727C15.2483 3.24277 15.2483 5.26212 14.0028 6.50762L14.7545 7.25934ZM14.9942 6.8007L14.7544 6.56091L14.0026 7.31264L14.2424 7.55242L14.9942 6.8007ZM9.40124 13.6757L14.9942 8.08279L14.2424 7.33106L8.64951 12.924L9.40124 13.6757ZM8.75171 13.7024L8.77843 13.6757L8.0267 12.924L7.99999 12.9507L8.75171 13.7024ZM1.83028 7.89753L7.63516 13.7024L8.38688 12.9507L2.582 7.14581L1.83028 7.89753ZM1.24551 7.31277C1.45094 7.51819 1.67258 7.69853 1.90651 7.85352L2.4937 6.9673C2.31863 6.85131 2.15216 6.71597 1.99724 6.56104L1.24551 7.31277ZM1.24551 1.29897C-0.415156 2.95963 -0.415156 5.6521 1.24551 7.31277L1.99724 6.56104C0.751736 5.31554 0.751736 3.29619 1.99724 2.05069L1.24551 1.29897ZM7.25931 1.29897C5.59865 -0.3617 2.90618 -0.3617 1.24551 1.29897L1.99724 2.05069C3.24273 0.805192 5.26209 0.805192 6.50759 2.05069L7.25931 1.29897ZM2.582 7.14581C2.77495 7.33875 2.77495 7.65158 2.582 7.84453L1.83028 7.0928C1.60805 7.31502 1.60805 7.67531 1.83028 7.89753L2.582 7.14581ZM9.08983 12.924C8.79626 12.6304 8.32028 12.6304 8.0267 12.924L8.77843 13.6757C8.65684 13.7973 8.4597 13.7973 8.33811 13.6757L9.08983 12.924ZM8.64951 12.924C8.7711 12.8024 8.96824 12.8024 9.08983 12.924L8.33811 13.6757C8.63168 13.9693 9.10766 13.9693 9.40124 13.6757L8.64951 12.924ZM14.2424 7.55242C14.1813 7.4913 14.1813 7.39219 14.2424 7.33106L14.9942 8.08279C15.3482 7.72875 15.3482 7.15474 14.9942 6.8007L14.2424 7.55242ZM7.3713 2.9144C7.89268 3.43579 8.68327 3.18198 8.98045 2.66486L8.05871 2.13516C8.05981 2.13325 8.0604 2.13326 8.05899 2.13425C8.05715 2.13553 8.05574 2.13577 8.05669 2.13558C8.05776 2.13538 8.06585 2.134 8.07977 2.13777C8.09535 2.142 8.11136 2.15101 8.12302 2.16268L7.3713 2.9144ZM14.0046 6.50576C13.7805 6.72769 13.7796 7.08959 14.0026 7.31264L14.7544 6.56091C14.9479 6.75449 14.9472 7.06859 14.7526 7.26121L14.0046 6.50576ZM2.582 7.84453C2.83984 7.58669 2.78982 7.1635 2.4937 6.9673L1.90651 7.85352C1.65022 7.68371 1.60622 7.31686 1.83028 7.0928L2.582 7.84453ZM7.79107 2.63546C7.59812 2.8284 7.2853 2.8284 7.09235 2.63546L7.84408 1.88373C7.62186 1.66151 7.26157 1.66151 7.03934 1.88373L7.79107 2.63546ZM7.99999 12.9507C8.10683 12.8439 8.28005 12.8439 8.38688 12.9507L7.63516 13.7024C7.94349 14.0107 8.44339 14.0107 8.75171 13.7024L7.99999 12.9507ZM6.91384 2.54715C7.11004 2.84327 7.53323 2.8933 7.79107 2.63546L7.03934 1.88373C7.2634 1.65968 7.63026 1.70368 7.80007 1.95996L6.91384 2.54715Z" fill="#596787"/>
</svg>
