<svg width="6" height="8" viewBox="0 0 6 8" fill="none" xmlns="http://www.w3.org/2000/svg">
<path d="M1.38843 7.15152H5.32782V8H0.0661157V7.07438C0.56933 6.73646 1.02296 6.42424 1.427 6.13774C1.83104 5.85124 2.18733 5.58127 2.49587 5.32782C2.80441 5.07071 3.06887 4.82645 3.28926 4.59504C3.51331 4.36364 3.69697 4.13407 3.84022 3.90634C3.98347 3.6786 4.08815 3.44904 4.15427 3.21763C4.22039 2.98623 4.25344 2.74197 4.25344 2.48485C4.25344 2.26446 4.21488 2.0551 4.13774 1.85675C4.06428 1.6584 3.95592 1.48577 3.81267 1.33884C3.67309 1.18825 3.49862 1.06887 3.28926 0.980716C3.08356 0.892562 2.84848 0.848485 2.58402 0.848485C2.37098 0.848485 2.16529 0.879706 1.96694 0.942149C1.77227 1.00092 1.5978 1.09642 1.44353 1.22865C1.29293 1.36088 1.16988 1.53168 1.07438 1.74105C0.97888 1.94674 0.92562 2.19467 0.914601 2.48485L0 2.38017C0.0146924 2.01286 0.0863177 1.68228 0.214876 1.38843C0.343434 1.09458 0.519743 0.844812 0.743802 0.639118C0.971534 0.433425 1.24151 0.275482 1.55372 0.165289C1.86961 0.0550964 2.22039 0 2.60606 0C2.98072 0 3.32782 0.0624426 3.64738 0.187328C3.97062 0.30854 4.24977 0.479339 4.48485 0.699725C4.7236 0.92011 4.90909 1.1809 5.04132 1.48209C5.17723 1.78329 5.24518 2.11203 5.24518 2.46832C5.24518 2.89073 5.17172 3.28742 5.02479 3.6584C4.88154 4.02938 4.66116 4.39486 4.36364 4.75482C4.06612 5.11111 3.68779 5.47107 3.22865 5.83471C2.77319 6.19835 2.23508 6.58219 1.61433 6.98623L1.38843 7.12948V7.15152Z" fill="white"/>
</svg>
