<svg width="15" height="15" viewBox="0 0 15 15" fill="none" xmlns="http://www.w3.org/2000/svg">
<path d="M7.5 15C11.6421 15 15 11.6421 15 7.5C15 3.35786 11.6421 0 7.5 0C3.35786 0 0 3.35786 0 7.5C0 11.6421 3.35786 15 7.5 15Z" fill="#FFCC4D"/>
<path d="M7.49972 8.74978C5.99013 8.74978 4.98847 8.57394 3.74972 8.33311C3.4668 8.27853 2.91638 8.33311 2.91638 9.16644C2.91638 10.8331 4.83097 12.9164 7.49972 12.9164C10.168 12.9164 12.083 10.8331 12.083 9.16644C12.083 8.33311 11.5326 8.27811 11.2497 8.33311C10.011 8.57394 9.0093 8.74978 7.49972 8.74978Z" fill="#664500"/>
<path d="M3.75 9.1665C3.75 9.1665 5 9.58317 7.5 9.58317C10 9.58317 11.25 9.1665 11.25 9.1665C11.25 9.1665 10.4167 10.8332 7.5 10.8332C4.58333 10.8332 3.75 9.1665 3.75 9.1665Z" fill="white"/>
<path d="M9.9998 7.08341C10.5751 7.08341 11.0415 6.4305 11.0415 5.62508C11.0415 4.81967 10.5751 4.16675 9.9998 4.16675C9.4245 4.16675 8.95813 4.81967 8.95813 5.62508C8.95813 6.4305 9.4245 7.08341 9.9998 7.08341Z" fill="#664500"/>
<path d="M4.99943 7.08341C5.57473 7.08341 6.0411 6.4305 6.0411 5.62508C6.0411 4.81967 5.57473 4.16675 4.99943 4.16675C4.42413 4.16675 3.95776 4.81967 3.95776 5.62508C3.95776 6.4305 4.42413 7.08341 4.99943 7.08341Z" fill="#664500"/>
</svg>
