<svg width="51" height="34" viewBox="0 0 51 34" fill="none" xmlns="http://www.w3.org/2000/svg">
<path fill-rule="evenodd" clip-rule="evenodd" d="M7.57218 13.9444L15.7568 13.8089C15.1473 13.5248 14.6094 13.1473 14.143 12.6764C13.6638 12.1793 13.2849 11.5939 13.0063 10.9202C12.7278 10.2399 12.5886 9.50731 12.5886 8.72239C12.5886 7.92439 12.7278 7.18526 13.0063 6.505C13.2849 5.82474 13.6638 5.23932 14.143 4.74875C14.6288 4.25164 15.1923 3.86245 15.8335 3.58119C16.4812 3.29992 17.171 3.15929 17.9029 3.15929C18.6413 3.15929 19.3311 3.29338 19.9723 3.56156C20.62 3.8232 21.1835 4.19931 21.6628 4.68988C22.1421 5.17391 22.521 5.75933 22.7995 6.44613C23.078 7.12639 23.2172 7.88515 23.2172 8.72239C23.2172 9.50731 23.078 10.2399 22.7995 10.9202C22.521 11.5939 22.1421 12.1793 21.6628 12.6764C21.2414 13.1077 20.7549 13.4607 20.2033 13.7353L26.9934 13.6229C26.6745 13.4357 26.3819 13.2118 26.1157 12.9511C25.6947 12.526 25.3611 12.0125 25.115 11.4107C24.8753 10.8024 24.7555 10.1222 24.7555 9.36995V3.56156H27.3981V9.36995C27.3981 9.72316 27.4499 10.0404 27.5536 10.3217C27.6637 10.5964 27.8094 10.8286 27.9908 11.0183C28.1721 11.208 28.3826 11.3519 28.6223 11.45C28.8684 11.5481 29.1307 11.5972 29.4092 11.5972C29.6812 11.5972 29.9371 11.535 30.1767 11.4107C30.4228 11.2799 30.6366 11.1098 30.8179 10.9005C30.9993 10.6912 31.1418 10.4558 31.2454 10.1941C31.3491 9.92593 31.4009 9.65121 31.4009 9.36995V3.56156H34.0532V13.506L36.291 13.4689V3.56156H36.9322L37.8066 4.80762C38.234 4.41516 38.7198 4.11427 39.2639 3.90496C39.8079 3.68911 40.3714 3.58119 40.9544 3.58119H43.2958V6.2499H40.9544C40.6759 6.2499 40.4135 6.30223 40.1674 6.40689C39.9213 6.51154 39.7076 6.65544 39.5262 6.83859C39.3448 7.02174 39.2024 7.23759 39.0987 7.48615C38.9951 7.73471 38.9433 7.99962 38.9433 8.28088V13.425L42.697 13.3629L42.6322 9.36683L51 14.0628L42.7891 19.0332L42.7242 15.0371L0.0271783 15.744L0 14.0698L4.79358 13.9904V9.66429C4.17827 9.50731 3.61153 9.25548 3.09338 8.90881C2.5817 8.56214 2.14127 8.15006 1.77208 7.67257C1.40289 7.18853 1.11467 6.65544 0.907408 6.0733C0.706622 5.48461 0.60623 4.86649 0.60623 4.21893V0H3.39455V4.21893C3.39455 4.60485 3.4658 4.97114 3.60829 5.31781C3.75726 5.65795 3.95805 5.95556 4.21065 6.21066C4.46325 6.46576 4.75795 6.66853 5.09475 6.81897C5.43803 6.96287 5.80074 7.03482 6.18288 7.03482C6.56502 7.03482 6.92449 6.96287 7.26129 6.81897C7.60457 6.66853 7.90251 6.46576 8.15511 6.21066C8.40771 5.95556 8.60526 5.65795 8.74775 5.31781C8.89672 4.97114 8.9712 4.60485 8.9712 4.21893V0H11.7498V4.21893C11.7498 4.86649 11.6462 5.48461 11.4389 6.0733C11.2381 6.65544 10.9531 7.18853 10.584 7.67257C10.2148 8.15006 9.77435 8.56214 9.26267 8.90881C8.75099 9.25548 8.18749 9.50731 7.57218 9.66429V13.9444ZM33.0223 13.5231L32.5376 12.8432C32.3238 13.0394 32.0939 13.2259 31.8478 13.4025C31.778 13.452 31.7071 13.4998 31.6352 13.546L33.0223 13.5231ZM20.3318 7.55483C20.4743 7.9015 20.5455 8.29069 20.5455 8.72239C20.5455 9.14756 20.4743 9.53675 20.3318 9.88996C20.1958 10.2432 20.0079 10.5441 19.7683 10.7926C19.5286 11.0412 19.2469 11.2341 18.923 11.3715C18.6057 11.5089 18.2656 11.5775 17.9029 11.5775C17.5402 11.5775 17.1969 11.5056 16.8731 11.3617C16.5557 11.2112 16.2772 11.0085 16.0376 10.7534C15.8044 10.4983 15.6198 10.1974 15.4838 9.85071C15.3478 9.50404 15.2798 9.12793 15.2798 8.72239C15.2798 8.29069 15.3478 7.9015 15.4838 7.55483C15.6198 7.20162 15.8044 6.90073 16.0376 6.65217C16.2772 6.39708 16.5557 6.20412 16.8731 6.0733C17.1969 5.93594 17.5402 5.86726 17.9029 5.86726C18.2656 5.86726 18.6057 5.93594 18.923 6.0733C19.2469 6.20412 19.5286 6.39708 19.7683 6.65217C20.0079 6.90073 20.1958 7.20162 20.3318 7.55483Z" fill="white"/>
<path d="M14.8005 27.6029C15.0207 27.0862 15.1308 26.5367 15.1308 25.9546V15.9077H12.3522V25.9546C12.3522 26.1508 12.3133 26.3372 12.2356 26.5139C12.1643 26.6839 12.0639 26.8344 11.9344 26.9652C11.8113 27.0895 11.6656 27.1876 11.4972 27.2595C11.3288 27.3315 11.1475 27.3674 10.9531 27.3674C10.7588 27.3674 10.5775 27.3315 10.4091 27.2595C10.2407 27.1876 10.0917 27.0895 9.96218 26.9652C9.83912 26.8344 9.74196 26.6839 9.67071 26.5139C9.59947 26.3372 9.56385 26.1508 9.56385 25.9546V15.9077H6.77552V25.9546C6.77552 26.1508 6.7399 26.3372 6.66865 26.5139C6.5974 26.6839 6.49701 26.8344 6.36747 26.9652C6.24441 27.0895 6.09868 27.1876 5.93028 27.2595C5.76188 27.3315 5.58052 27.3674 5.38622 27.3674C5.19191 27.3674 5.01055 27.3315 4.84215 27.2595C4.67375 27.1876 4.52478 27.0895 4.39524 26.9652C4.27218 26.8344 4.17503 26.6839 4.10378 26.5139C4.03253 26.3372 3.99691 26.1508 3.99691 25.9546V15.9077H1.20859V25.9546C1.20859 26.5367 1.31546 27.0862 1.52919 27.6029C1.74941 28.1131 2.04735 28.5612 2.42301 28.9471C2.80515 29.3265 3.24882 29.6274 3.75403 29.8498C4.2657 30.0656 4.80977 30.1735 5.38622 30.1735C5.90437 30.1735 6.4031 30.082 6.88239 29.8988C7.36168 29.7157 7.7924 29.4475 8.17454 29.0943C8.55668 29.4475 8.98416 29.7157 9.45698 29.8988C9.93627 30.082 10.435 30.1735 10.9531 30.1735C11.5296 30.1735 12.0704 30.0656 12.5756 29.8498C13.0873 29.6274 13.531 29.3265 13.9066 28.9471C14.2888 28.5612 14.5867 28.1131 14.8005 27.6029Z" fill="white"/>
<path fill-rule="evenodd" clip-rule="evenodd" d="M26.8508 29.9773H27.492V19.4888H26.8508L25.821 20.7349C25.5749 20.4994 25.3093 20.2803 25.0243 20.0775C24.7458 19.8748 24.4511 19.6982 24.1402 19.5477C23.8293 19.3973 23.5087 19.2795 23.1784 19.1945C22.8481 19.1095 22.5145 19.0669 22.1777 19.0669C21.4458 19.0669 20.756 19.2043 20.1083 19.479C19.4671 19.7472 18.9036 20.1266 18.4178 20.6172C17.9385 21.1077 17.5596 21.6964 17.2811 22.3832C17.0026 23.0635 16.8634 23.8124 16.8634 24.6301C16.8634 25.5065 17.0026 26.2882 17.2811 26.975C17.5596 27.6618 17.9385 28.2439 18.4178 28.7214C18.9036 29.1924 19.4671 29.5521 20.1083 29.8007C20.756 30.0492 21.4458 30.1735 22.1777 30.1735C22.5145 30.1735 22.8448 30.131 23.1687 30.046C23.499 29.9609 23.8196 29.8465 24.1305 29.7026C24.4414 29.5521 24.7361 29.3788 25.0146 29.1826C25.2996 28.9798 25.5684 28.7639 25.821 28.535L26.8508 29.9773ZM24.6066 23.5704C24.749 23.9105 24.8203 24.2638 24.8203 24.6301C24.8203 24.9963 24.749 25.3528 24.6066 25.6995C24.4705 26.0396 24.2827 26.3438 24.0431 26.612C23.8034 26.8736 23.5217 27.0862 23.1978 27.2497C22.8804 27.4067 22.5404 27.4852 22.1777 27.4852C21.815 27.4852 21.4717 27.423 21.1479 27.2988C20.8305 27.1745 20.552 26.9913 20.3123 26.7493C20.0792 26.5073 19.8946 26.2097 19.7586 25.8565C19.6225 25.4967 19.5545 25.0879 19.5545 24.6301C19.5545 24.1722 19.6225 23.7666 19.7586 23.4134C19.8946 23.0537 20.0792 22.7528 20.3123 22.5108C20.552 22.2688 20.8305 22.0856 21.1479 21.9613C21.4717 21.8371 21.815 21.7749 22.1777 21.7749C22.5404 21.7749 22.8804 21.8567 23.1978 22.0202C23.5217 22.1772 23.8034 22.3898 24.0431 22.6579C24.2827 22.9196 24.4705 23.2237 24.6066 23.5704Z" fill="white"/>
<path d="M32.2364 31.2822V33.9804L33.5966 34C34.3284 34 35.015 33.8594 35.6562 33.5781C36.2974 33.2968 36.8577 32.9142 37.337 32.4302C37.8228 31.9461 38.2049 31.3803 38.4834 30.7328C38.7619 30.0852 38.9044 29.3919 38.9109 28.6528V19.4692H36.2391V25.2776C36.2391 25.5589 36.1873 25.8336 36.0837 26.1018C35.9801 26.3634 35.8376 26.5989 35.6562 26.8082C35.4749 27.0175 35.2611 27.1876 35.015 27.3184C34.7754 27.4427 34.5195 27.5048 34.2475 27.5048C33.969 27.5048 33.7067 27.459 33.4605 27.3674C33.2209 27.2759 33.0104 27.1385 32.829 26.9554C32.6477 26.7657 32.5019 26.5335 32.3918 26.2588C32.2882 25.9775 32.2364 25.6504 32.2364 25.2776V19.4692H29.5938V25.2776C29.5938 26.0298 29.7136 26.7101 29.9533 27.3184C30.1994 27.9202 30.533 28.4336 30.954 28.8588C31.3814 29.2774 31.8769 29.6012 32.4404 29.8301C33.0039 30.0591 33.6063 30.1735 34.2475 30.1735C34.5519 30.1735 34.8531 30.1114 35.151 29.9871C35.4554 29.8628 35.7534 29.7386 36.0448 29.6143C35.9477 29.8563 35.8214 30.0787 35.6659 30.2815C35.5105 30.4908 35.3291 30.6706 35.1219 30.8211C34.9211 30.9715 34.7009 31.0893 34.4612 31.1743C34.2216 31.2593 33.9722 31.3018 33.7131 31.3018L32.2364 31.2822Z" fill="white"/>
</svg>
