<svg width="190" height="125" viewBox="0 0 190 125" fill="none" xmlns="http://www.w3.org/2000/svg">
<g filter="url(#filter0_d_336_1916)">
<mask id="path-1-inside-1_336_1916" fill="white">
<path fill-rule="evenodd" clip-rule="evenodd" d="M28.2101 51.2661L58.7019 50.768C56.431 49.7236 54.427 48.3358 52.6898 46.6045C50.9042 44.7768 49.4926 42.6246 48.455 40.1477C47.4174 37.6467 46.8986 34.9533 46.8986 32.0676C46.8986 29.1338 47.4174 26.4164 48.455 23.9154C49.4926 21.4145 50.9042 19.2622 52.6898 17.4586C54.4995 15.631 56.5988 14.2002 58.9877 13.1661C61.4006 12.1321 63.9705 11.615 66.6971 11.615C69.4479 11.615 72.0178 12.108 74.4066 13.094C76.8196 14.0559 78.9189 15.4386 80.7045 17.2422C82.4901 19.0217 83.9017 21.174 84.9393 23.699C85.9768 26.2 86.4956 28.9895 86.4956 32.0676C86.4956 34.9533 85.9768 37.6467 84.9393 40.1477C83.9017 42.6246 82.4901 44.7768 80.7045 46.6045C79.1345 48.1902 77.322 49.4879 75.267 50.4973L100.564 50.0841C99.3755 49.3961 98.2855 48.5729 97.2937 47.6145C95.7253 46.0514 94.4826 44.1636 93.5657 41.9512C92.6729 39.7148 92.2265 37.2138 92.2265 34.4483V13.094H102.071V34.4483C102.071 35.7469 102.264 36.9132 102.651 37.9473C103.061 38.9573 103.604 39.811 104.279 40.5084C104.955 41.2057 105.739 41.7348 106.632 42.0955C107.549 42.4562 108.526 42.6366 109.564 42.6366C110.577 42.6366 111.53 42.4081 112.423 41.9512C113.34 41.4703 114.136 40.845 114.812 40.0755C115.488 39.306 116.018 38.4403 116.405 37.4784C116.791 36.4924 116.984 35.4824 116.984 34.4483V13.094H126.865V49.6544L135.202 49.5182V13.094H137.59L140.848 17.6751C142.441 16.2322 144.25 15.126 146.277 14.3565C148.304 13.5629 150.403 13.1661 152.575 13.1661H161.298V22.9776H152.575C151.538 22.9776 150.56 23.17 149.643 23.5547C148.726 23.9395 147.93 24.4685 147.254 25.1419C146.579 25.8152 146.048 26.6088 145.662 27.5226C145.276 28.4364 145.083 29.4103 145.083 30.4444V49.3567L159.067 49.1282L158.826 34.4369L190 51.7014L159.41 69.975L159.169 55.2836L0.101252 57.8824L0 51.727L17.8584 51.4353V35.5305C15.5661 34.9533 13.4547 34.0275 11.5243 32.753C9.61809 31.4785 7.97727 29.9634 6.60187 28.208C5.22647 26.4284 4.15269 24.4685 3.38054 22.3283C2.63251 20.164 2.2585 17.8915 2.2585 15.5108V0H12.6464V15.5108C12.6464 16.9296 12.9118 18.2763 13.4427 19.5508C13.9977 20.8013 14.7457 21.8954 15.6867 22.8333C16.6278 23.7712 17.7257 24.5166 18.9805 25.0697C20.2593 25.5988 21.6106 25.8633 23.0343 25.8633C24.4579 25.8633 25.7971 25.5988 27.0519 25.0697C28.3307 24.5166 29.4407 23.7712 30.3818 22.8333C31.3228 21.8954 32.0588 20.8013 32.5897 19.5508C33.1446 18.2763 33.4221 16.9296 33.4221 15.5108V0H43.7738V15.5108C43.7738 17.8915 43.3877 20.164 42.6156 22.3283C41.8676 24.4685 40.8059 26.4284 39.4305 28.208C38.0551 29.9634 36.4142 31.4785 34.508 32.753C32.6017 34.0275 30.5024 34.9533 28.2101 35.5305V51.2661ZM123.024 49.7171L121.218 47.2177C120.422 47.9391 119.566 48.6245 118.649 49.2738C118.389 49.4558 118.125 49.6317 117.856 49.8015L123.024 49.7171ZM75.7458 27.7751C76.2767 29.0496 76.5421 30.4805 76.5421 32.0676C76.5421 33.6307 76.2767 35.0616 75.7458 36.3601C75.2391 37.6587 74.5393 38.7649 73.6465 39.6787C72.7537 40.5925 71.7041 41.3019 70.4976 41.8069C69.3152 42.3119 68.0484 42.5644 66.6971 42.5644C65.3459 42.5644 64.067 42.2999 62.8605 41.7709C61.6781 41.2178 60.6406 40.4723 59.7477 39.5344C58.8791 38.5966 58.1914 37.4904 57.6847 36.2159C57.1779 34.9413 56.9246 33.5586 56.9246 32.0676C56.9246 30.4805 57.1779 29.0496 57.6847 27.7751C58.1914 26.4765 58.8791 25.3703 59.7477 24.4565C60.6406 23.5187 61.6781 22.8093 62.8605 22.3283C64.067 21.8233 65.3459 21.5708 66.6971 21.5708C68.0484 21.5708 69.3152 21.8233 70.4976 22.3283C71.7041 22.8093 72.7537 23.5187 73.6465 24.4565C74.5393 25.3703 75.2391 26.4765 75.7458 27.7751Z"/>
<path d="M55.139 101.481C55.9594 99.5816 56.3696 97.5616 56.3696 95.4213V58.484H46.0179V95.4213C46.0179 96.1427 45.8731 96.8281 45.5836 97.4774C45.3181 98.1026 44.9441 98.6557 44.4615 99.1367C44.0031 99.5936 43.4601 99.9543 42.8328 100.219C42.2054 100.483 41.5297 100.616 40.8059 100.616C40.082 100.616 39.4063 100.483 38.779 100.219C38.1516 99.9543 37.5966 99.5936 37.114 99.1367C36.6555 98.6557 36.2936 98.1026 36.0282 97.4774C35.7627 96.8281 35.63 96.1427 35.63 95.4213V58.484H25.2421V95.4213C25.2421 96.1427 25.1094 96.8281 24.844 97.4774C24.5786 98.1026 24.2046 98.6557 23.722 99.1367C23.2635 99.5936 22.7206 99.9543 22.0932 100.219C21.4658 100.483 20.7902 100.616 20.0663 100.616C19.3424 100.616 18.6668 100.483 18.0394 100.219C17.412 99.9543 16.857 99.5936 16.3744 99.1367C15.916 98.6557 15.554 98.1026 15.2886 97.4774C15.0232 96.8281 14.8905 96.1427 14.8905 95.4213V58.484H4.50257V95.4213C4.50257 97.5616 4.90072 99.5816 5.697 101.481C6.51741 103.357 7.62738 105.004 9.02691 106.423C10.4506 107.818 12.1035 108.924 13.9856 109.742C15.8918 110.535 17.9187 110.932 20.0663 110.932C21.9967 110.932 23.8547 110.595 25.6403 109.922C27.4259 109.249 29.0305 108.263 30.4542 106.964C31.8778 108.263 33.4704 109.249 35.2319 109.922C37.0175 110.595 38.8755 110.932 40.8059 110.932C42.9534 110.932 44.9682 110.535 46.8504 109.742C48.7566 108.924 50.4095 107.818 51.809 106.423C53.2327 105.004 54.3427 103.357 55.139 101.481Z"/>
<path fill-rule="evenodd" clip-rule="evenodd" d="M100.032 110.211H102.421V71.6502H100.032L96.1958 76.2312C95.2789 75.3655 94.2896 74.5599 93.2278 73.8144C92.1903 73.069 91.0924 72.4197 89.9341 71.8666C88.7759 71.3135 87.5815 70.8806 86.3509 70.568C85.1202 70.2554 83.8775 70.0991 82.6228 70.0991C79.8961 70.0991 77.3263 70.6041 74.9133 71.6141C72.5245 72.6 70.4252 73.9948 68.6154 75.7984C66.8298 77.602 65.4183 79.7663 64.3807 82.2913C63.3431 84.7922 62.8243 87.5457 62.8243 90.5517C62.8243 93.774 63.3431 96.6477 64.3807 99.1728C65.4183 101.698 66.8298 103.838 68.6154 105.593C70.4252 107.325 72.5245 108.648 74.9133 109.561C77.3263 110.475 79.8961 110.932 82.6228 110.932C83.8775 110.932 85.1082 110.776 86.3147 110.463C87.5453 110.151 88.7397 109.73 89.8979 109.201C91.0562 108.648 92.1541 108.01 93.1917 107.289C94.2534 106.543 95.2547 105.75 96.1958 104.908L100.032 110.211ZM91.6715 86.6559C92.2023 87.9064 92.4678 89.205 92.4678 90.5517C92.4678 91.8983 92.2023 93.2089 91.6715 94.4835C91.1647 95.7339 90.465 96.8521 89.5722 97.8381C88.6794 98.8 87.6297 99.5816 86.4232 100.183C85.2409 100.76 83.9741 101.048 82.6228 101.048C81.2715 101.048 79.9927 100.82 78.7862 100.363C77.6038 99.9062 76.5662 99.2329 75.6734 98.3431C74.8047 97.4533 74.117 96.3592 73.6103 95.0606C73.1036 93.738 72.8502 92.235 72.8502 90.5517C72.8502 88.8683 73.1036 87.3774 73.6103 86.0788C74.117 84.7562 74.8047 83.65 75.6734 82.7602C76.5662 81.8704 77.6038 81.1971 78.7862 80.7402C79.9927 80.2833 81.2715 80.0548 82.6228 80.0548C83.9741 80.0548 85.2409 80.3554 86.4232 80.9566C87.6297 81.5338 88.6794 82.3153 89.5722 83.3013C90.465 84.2632 91.1647 85.3814 91.6715 86.6559Z"/>
<path d="M120.096 115.008V124.928L125.164 125C127.89 125 130.448 124.483 132.837 123.449C135.226 122.415 137.313 121.008 139.099 119.229C140.908 117.449 142.332 115.369 143.37 112.988C144.407 110.607 144.938 108.058 144.962 105.341V71.578H135.009V92.9324C135.009 93.9664 134.816 94.9764 134.429 95.9624C134.043 96.9243 133.513 97.79 132.837 98.5595C132.161 99.3291 131.365 99.9543 130.448 100.435C129.555 100.892 128.602 101.121 127.589 101.121C126.551 101.121 125.574 100.952 124.657 100.616C123.764 100.279 122.98 99.7739 122.304 99.1006C121.629 98.4032 121.086 97.5495 120.675 96.5395C120.289 95.5055 120.096 94.3031 120.096 92.9324V71.578H110.251V92.9324C110.251 95.6979 110.698 98.1988 111.591 100.435C112.508 102.648 113.75 104.535 115.319 106.098C116.911 107.638 118.757 108.828 120.856 109.67C122.956 110.511 125.2 110.932 127.589 110.932C128.723 110.932 129.845 110.704 130.955 110.247C132.089 109.79 133.199 109.333 134.285 108.876C133.923 109.766 133.452 110.583 132.873 111.329C132.294 112.098 131.618 112.76 130.846 113.313C130.098 113.866 129.278 114.299 128.385 114.611C127.492 114.924 126.563 115.08 125.598 115.08L120.096 115.008Z"/>
</mask>
<path fill-rule="evenodd" clip-rule="evenodd" d="M28.2101 51.2661L58.7019 50.768C56.431 49.7236 54.427 48.3358 52.6898 46.6045C50.9042 44.7768 49.4926 42.6246 48.455 40.1477C47.4174 37.6467 46.8986 34.9533 46.8986 32.0676C46.8986 29.1338 47.4174 26.4164 48.455 23.9154C49.4926 21.4145 50.9042 19.2622 52.6898 17.4586C54.4995 15.631 56.5988 14.2002 58.9877 13.1661C61.4006 12.1321 63.9705 11.615 66.6971 11.615C69.4479 11.615 72.0178 12.108 74.4066 13.094C76.8196 14.0559 78.9189 15.4386 80.7045 17.2422C82.4901 19.0217 83.9017 21.174 84.9393 23.699C85.9768 26.2 86.4956 28.9895 86.4956 32.0676C86.4956 34.9533 85.9768 37.6467 84.9393 40.1477C83.9017 42.6246 82.4901 44.7768 80.7045 46.6045C79.1345 48.1902 77.322 49.4879 75.267 50.4973L100.564 50.0841C99.3755 49.3961 98.2855 48.5729 97.2937 47.6145C95.7253 46.0514 94.4826 44.1636 93.5657 41.9512C92.6729 39.7148 92.2265 37.2138 92.2265 34.4483V13.094H102.071V34.4483C102.071 35.7469 102.264 36.9132 102.651 37.9473C103.061 38.9573 103.604 39.811 104.279 40.5084C104.955 41.2057 105.739 41.7348 106.632 42.0955C107.549 42.4562 108.526 42.6366 109.564 42.6366C110.577 42.6366 111.53 42.4081 112.423 41.9512C113.34 41.4703 114.136 40.845 114.812 40.0755C115.488 39.306 116.018 38.4403 116.405 37.4784C116.791 36.4924 116.984 35.4824 116.984 34.4483V13.094H126.865V49.6544L135.202 49.5182V13.094H137.59L140.848 17.6751C142.441 16.2322 144.25 15.126 146.277 14.3565C148.304 13.5629 150.403 13.1661 152.575 13.1661H161.298V22.9776H152.575C151.538 22.9776 150.56 23.17 149.643 23.5547C148.726 23.9395 147.93 24.4685 147.254 25.1419C146.579 25.8152 146.048 26.6088 145.662 27.5226C145.276 28.4364 145.083 29.4103 145.083 30.4444V49.3567L159.067 49.1282L158.826 34.4369L190 51.7014L159.41 69.975L159.169 55.2836L0.101252 57.8824L0 51.727L17.8584 51.4353V35.5305C15.5661 34.9533 13.4547 34.0275 11.5243 32.753C9.61809 31.4785 7.97727 29.9634 6.60187 28.208C5.22647 26.4284 4.15269 24.4685 3.38054 22.3283C2.63251 20.164 2.2585 17.8915 2.2585 15.5108V0H12.6464V15.5108C12.6464 16.9296 12.9118 18.2763 13.4427 19.5508C13.9977 20.8013 14.7457 21.8954 15.6867 22.8333C16.6278 23.7712 17.7257 24.5166 18.9805 25.0697C20.2593 25.5988 21.6106 25.8633 23.0343 25.8633C24.4579 25.8633 25.7971 25.5988 27.0519 25.0697C28.3307 24.5166 29.4407 23.7712 30.3818 22.8333C31.3228 21.8954 32.0588 20.8013 32.5897 19.5508C33.1446 18.2763 33.4221 16.9296 33.4221 15.5108V0H43.7738V15.5108C43.7738 17.8915 43.3877 20.164 42.6156 22.3283C41.8676 24.4685 40.8059 26.4284 39.4305 28.208C38.0551 29.9634 36.4142 31.4785 34.508 32.753C32.6017 34.0275 30.5024 34.9533 28.2101 35.5305V51.2661ZM123.024 49.7171L121.218 47.2177C120.422 47.9391 119.566 48.6245 118.649 49.2738C118.389 49.4558 118.125 49.6317 117.856 49.8015L123.024 49.7171ZM75.7458 27.7751C76.2767 29.0496 76.5421 30.4805 76.5421 32.0676C76.5421 33.6307 76.2767 35.0616 75.7458 36.3601C75.2391 37.6587 74.5393 38.7649 73.6465 39.6787C72.7537 40.5925 71.7041 41.3019 70.4976 41.8069C69.3152 42.3119 68.0484 42.5644 66.6971 42.5644C65.3459 42.5644 64.067 42.2999 62.8605 41.7709C61.6781 41.2178 60.6406 40.4723 59.7477 39.5344C58.8791 38.5966 58.1914 37.4904 57.6847 36.2159C57.1779 34.9413 56.9246 33.5586 56.9246 32.0676C56.9246 30.4805 57.1779 29.0496 57.6847 27.7751C58.1914 26.4765 58.8791 25.3703 59.7477 24.4565C60.6406 23.5187 61.6781 22.8093 62.8605 22.3283C64.067 21.8233 65.3459 21.5708 66.6971 21.5708C68.0484 21.5708 69.3152 21.8233 70.4976 22.3283C71.7041 22.8093 72.7537 23.5187 73.6465 24.4565C74.5393 25.3703 75.2391 26.4765 75.7458 27.7751Z" fill="black"/>
<path d="M55.139 101.481C55.9594 99.5816 56.3696 97.5616 56.3696 95.4213V58.484H46.0179V95.4213C46.0179 96.1427 45.8731 96.8281 45.5836 97.4774C45.3181 98.1026 44.9441 98.6557 44.4615 99.1367C44.0031 99.5936 43.4601 99.9543 42.8328 100.219C42.2054 100.483 41.5297 100.616 40.8059 100.616C40.082 100.616 39.4063 100.483 38.779 100.219C38.1516 99.9543 37.5966 99.5936 37.114 99.1367C36.6555 98.6557 36.2936 98.1026 36.0282 97.4774C35.7627 96.8281 35.63 96.1427 35.63 95.4213V58.484H25.2421V95.4213C25.2421 96.1427 25.1094 96.8281 24.844 97.4774C24.5786 98.1026 24.2046 98.6557 23.722 99.1367C23.2635 99.5936 22.7206 99.9543 22.0932 100.219C21.4658 100.483 20.7902 100.616 20.0663 100.616C19.3424 100.616 18.6668 100.483 18.0394 100.219C17.412 99.9543 16.857 99.5936 16.3744 99.1367C15.916 98.6557 15.554 98.1026 15.2886 97.4774C15.0232 96.8281 14.8905 96.1427 14.8905 95.4213V58.484H4.50257V95.4213C4.50257 97.5616 4.90072 99.5816 5.697 101.481C6.51741 103.357 7.62738 105.004 9.02691 106.423C10.4506 107.818 12.1035 108.924 13.9856 109.742C15.8918 110.535 17.9187 110.932 20.0663 110.932C21.9967 110.932 23.8547 110.595 25.6403 109.922C27.4259 109.249 29.0305 108.263 30.4542 106.964C31.8778 108.263 33.4704 109.249 35.2319 109.922C37.0175 110.595 38.8755 110.932 40.8059 110.932C42.9534 110.932 44.9682 110.535 46.8504 109.742C48.7566 108.924 50.4095 107.818 51.809 106.423C53.2327 105.004 54.3427 103.357 55.139 101.481Z" fill="black"/>
<path fill-rule="evenodd" clip-rule="evenodd" d="M100.032 110.211H102.421V71.6502H100.032L96.1958 76.2312C95.2789 75.3655 94.2896 74.5599 93.2278 73.8144C92.1903 73.069 91.0924 72.4197 89.9341 71.8666C88.7759 71.3135 87.5815 70.8806 86.3509 70.568C85.1202 70.2554 83.8775 70.0991 82.6228 70.0991C79.8961 70.0991 77.3263 70.6041 74.9133 71.6141C72.5245 72.6 70.4252 73.9948 68.6154 75.7984C66.8298 77.602 65.4183 79.7663 64.3807 82.2913C63.3431 84.7922 62.8243 87.5457 62.8243 90.5517C62.8243 93.774 63.3431 96.6477 64.3807 99.1728C65.4183 101.698 66.8298 103.838 68.6154 105.593C70.4252 107.325 72.5245 108.648 74.9133 109.561C77.3263 110.475 79.8961 110.932 82.6228 110.932C83.8775 110.932 85.1082 110.776 86.3147 110.463C87.5453 110.151 88.7397 109.73 89.8979 109.201C91.0562 108.648 92.1541 108.01 93.1917 107.289C94.2534 106.543 95.2547 105.75 96.1958 104.908L100.032 110.211ZM91.6715 86.6559C92.2023 87.9064 92.4678 89.205 92.4678 90.5517C92.4678 91.8983 92.2023 93.2089 91.6715 94.4835C91.1647 95.7339 90.465 96.8521 89.5722 97.8381C88.6794 98.8 87.6297 99.5816 86.4232 100.183C85.2409 100.76 83.9741 101.048 82.6228 101.048C81.2715 101.048 79.9927 100.82 78.7862 100.363C77.6038 99.9062 76.5662 99.2329 75.6734 98.3431C74.8047 97.4533 74.117 96.3592 73.6103 95.0606C73.1036 93.738 72.8502 92.235 72.8502 90.5517C72.8502 88.8683 73.1036 87.3774 73.6103 86.0788C74.117 84.7562 74.8047 83.65 75.6734 82.7602C76.5662 81.8704 77.6038 81.1971 78.7862 80.7402C79.9927 80.2833 81.2715 80.0548 82.6228 80.0548C83.9741 80.0548 85.2409 80.3554 86.4232 80.9566C87.6297 81.5338 88.6794 82.3153 89.5722 83.3013C90.465 84.2632 91.1647 85.3814 91.6715 86.6559Z" fill="black"/>
<path d="M120.096 115.008V124.928L125.164 125C127.89 125 130.448 124.483 132.837 123.449C135.226 122.415 137.313 121.008 139.099 119.229C140.908 117.449 142.332 115.369 143.37 112.988C144.407 110.607 144.938 108.058 144.962 105.341V71.578H135.009V92.9324C135.009 93.9664 134.816 94.9764 134.429 95.9624C134.043 96.9243 133.513 97.79 132.837 98.5595C132.161 99.3291 131.365 99.9543 130.448 100.435C129.555 100.892 128.602 101.121 127.589 101.121C126.551 101.121 125.574 100.952 124.657 100.616C123.764 100.279 122.98 99.7739 122.304 99.1006C121.629 98.4032 121.086 97.5495 120.675 96.5395C120.289 95.5055 120.096 94.3031 120.096 92.9324V71.578H110.251V92.9324C110.251 95.6979 110.698 98.1988 111.591 100.435C112.508 102.648 113.75 104.535 115.319 106.098C116.911 107.638 118.757 108.828 120.856 109.67C122.956 110.511 125.2 110.932 127.589 110.932C128.723 110.932 129.845 110.704 130.955 110.247C132.089 109.79 133.199 109.333 134.285 108.876C133.923 109.766 133.452 110.583 132.873 111.329C132.294 112.098 131.618 112.76 130.846 113.313C130.098 113.866 129.278 114.299 128.385 114.611C127.492 114.924 126.563 115.08 125.598 115.08L120.096 115.008Z" fill="black"/>
<path fill-rule="evenodd" clip-rule="evenodd" d="M28.2101 51.2661L58.7019 50.768C56.431 49.7236 54.427 48.3358 52.6898 46.6045C50.9042 44.7768 49.4926 42.6246 48.455 40.1477C47.4174 37.6467 46.8986 34.9533 46.8986 32.0676C46.8986 29.1338 47.4174 26.4164 48.455 23.9154C49.4926 21.4145 50.9042 19.2622 52.6898 17.4586C54.4995 15.631 56.5988 14.2002 58.9877 13.1661C61.4006 12.1321 63.9705 11.615 66.6971 11.615C69.4479 11.615 72.0178 12.108 74.4066 13.094C76.8196 14.0559 78.9189 15.4386 80.7045 17.2422C82.4901 19.0217 83.9017 21.174 84.9393 23.699C85.9768 26.2 86.4956 28.9895 86.4956 32.0676C86.4956 34.9533 85.9768 37.6467 84.9393 40.1477C83.9017 42.6246 82.4901 44.7768 80.7045 46.6045C79.1345 48.1902 77.322 49.4879 75.267 50.4973L100.564 50.0841C99.3755 49.3961 98.2855 48.5729 97.2937 47.6145C95.7253 46.0514 94.4826 44.1636 93.5657 41.9512C92.6729 39.7148 92.2265 37.2138 92.2265 34.4483V13.094H102.071V34.4483C102.071 35.7469 102.264 36.9132 102.651 37.9473C103.061 38.9573 103.604 39.811 104.279 40.5084C104.955 41.2057 105.739 41.7348 106.632 42.0955C107.549 42.4562 108.526 42.6366 109.564 42.6366C110.577 42.6366 111.53 42.4081 112.423 41.9512C113.34 41.4703 114.136 40.845 114.812 40.0755C115.488 39.306 116.018 38.4403 116.405 37.4784C116.791 36.4924 116.984 35.4824 116.984 34.4483V13.094H126.865V49.6544L135.202 49.5182V13.094H137.59L140.848 17.6751C142.441 16.2322 144.25 15.126 146.277 14.3565C148.304 13.5629 150.403 13.1661 152.575 13.1661H161.298V22.9776H152.575C151.538 22.9776 150.56 23.17 149.643 23.5547C148.726 23.9395 147.93 24.4685 147.254 25.1419C146.579 25.8152 146.048 26.6088 145.662 27.5226C145.276 28.4364 145.083 29.4103 145.083 30.4444V49.3567L159.067 49.1282L158.826 34.4369L190 51.7014L159.41 69.975L159.169 55.2836L0.101252 57.8824L0 51.727L17.8584 51.4353V35.5305C15.5661 34.9533 13.4547 34.0275 11.5243 32.753C9.61809 31.4785 7.97727 29.9634 6.60187 28.208C5.22647 26.4284 4.15269 24.4685 3.38054 22.3283C2.63251 20.164 2.2585 17.8915 2.2585 15.5108V0H12.6464V15.5108C12.6464 16.9296 12.9118 18.2763 13.4427 19.5508C13.9977 20.8013 14.7457 21.8954 15.6867 22.8333C16.6278 23.7712 17.7257 24.5166 18.9805 25.0697C20.2593 25.5988 21.6106 25.8633 23.0343 25.8633C24.4579 25.8633 25.7971 25.5988 27.0519 25.0697C28.3307 24.5166 29.4407 23.7712 30.3818 22.8333C31.3228 21.8954 32.0588 20.8013 32.5897 19.5508C33.1446 18.2763 33.4221 16.9296 33.4221 15.5108V0H43.7738V15.5108C43.7738 17.8915 43.3877 20.164 42.6156 22.3283C41.8676 24.4685 40.8059 26.4284 39.4305 28.208C38.0551 29.9634 36.4142 31.4785 34.508 32.753C32.6017 34.0275 30.5024 34.9533 28.2101 35.5305V51.2661ZM123.024 49.7171L121.218 47.2177C120.422 47.9391 119.566 48.6245 118.649 49.2738C118.389 49.4558 118.125 49.6317 117.856 49.8015L123.024 49.7171ZM75.7458 27.7751C76.2767 29.0496 76.5421 30.4805 76.5421 32.0676C76.5421 33.6307 76.2767 35.0616 75.7458 36.3601C75.2391 37.6587 74.5393 38.7649 73.6465 39.6787C72.7537 40.5925 71.7041 41.3019 70.4976 41.8069C69.3152 42.3119 68.0484 42.5644 66.6971 42.5644C65.3459 42.5644 64.067 42.2999 62.8605 41.7709C61.6781 41.2178 60.6406 40.4723 59.7477 39.5344C58.8791 38.5966 58.1914 37.4904 57.6847 36.2159C57.1779 34.9413 56.9246 33.5586 56.9246 32.0676C56.9246 30.4805 57.1779 29.0496 57.6847 27.7751C58.1914 26.4765 58.8791 25.3703 59.7477 24.4565C60.6406 23.5187 61.6781 22.8093 62.8605 22.3283C64.067 21.8233 65.3459 21.5708 66.6971 21.5708C68.0484 21.5708 69.3152 21.8233 70.4976 22.3283C71.7041 22.8093 72.7537 23.5187 73.6465 24.4565C74.5393 25.3703 75.2391 26.4765 75.7458 27.7751Z" stroke="white" stroke-width="2" mask="url(#path-1-inside-1_336_1916)"/>
<path d="M55.139 101.481C55.9594 99.5816 56.3696 97.5616 56.3696 95.4213V58.484H46.0179V95.4213C46.0179 96.1427 45.8731 96.8281 45.5836 97.4774C45.3181 98.1026 44.9441 98.6557 44.4615 99.1367C44.0031 99.5936 43.4601 99.9543 42.8328 100.219C42.2054 100.483 41.5297 100.616 40.8059 100.616C40.082 100.616 39.4063 100.483 38.779 100.219C38.1516 99.9543 37.5966 99.5936 37.114 99.1367C36.6555 98.6557 36.2936 98.1026 36.0282 97.4774C35.7627 96.8281 35.63 96.1427 35.63 95.4213V58.484H25.2421V95.4213C25.2421 96.1427 25.1094 96.8281 24.844 97.4774C24.5786 98.1026 24.2046 98.6557 23.722 99.1367C23.2635 99.5936 22.7206 99.9543 22.0932 100.219C21.4658 100.483 20.7902 100.616 20.0663 100.616C19.3424 100.616 18.6668 100.483 18.0394 100.219C17.412 99.9543 16.857 99.5936 16.3744 99.1367C15.916 98.6557 15.554 98.1026 15.2886 97.4774C15.0232 96.8281 14.8905 96.1427 14.8905 95.4213V58.484H4.50257V95.4213C4.50257 97.5616 4.90072 99.5816 5.697 101.481C6.51741 103.357 7.62738 105.004 9.02691 106.423C10.4506 107.818 12.1035 108.924 13.9856 109.742C15.8918 110.535 17.9187 110.932 20.0663 110.932C21.9967 110.932 23.8547 110.595 25.6403 109.922C27.4259 109.249 29.0305 108.263 30.4542 106.964C31.8778 108.263 33.4704 109.249 35.2319 109.922C37.0175 110.595 38.8755 110.932 40.8059 110.932C42.9534 110.932 44.9682 110.535 46.8504 109.742C48.7566 108.924 50.4095 107.818 51.809 106.423C53.2327 105.004 54.3427 103.357 55.139 101.481Z" stroke="white" stroke-width="2" mask="url(#path-1-inside-1_336_1916)"/>
<path fill-rule="evenodd" clip-rule="evenodd" d="M100.032 110.211H102.421V71.6502H100.032L96.1958 76.2312C95.2789 75.3655 94.2896 74.5599 93.2278 73.8144C92.1903 73.069 91.0924 72.4197 89.9341 71.8666C88.7759 71.3135 87.5815 70.8806 86.3509 70.568C85.1202 70.2554 83.8775 70.0991 82.6228 70.0991C79.8961 70.0991 77.3263 70.6041 74.9133 71.6141C72.5245 72.6 70.4252 73.9948 68.6154 75.7984C66.8298 77.602 65.4183 79.7663 64.3807 82.2913C63.3431 84.7922 62.8243 87.5457 62.8243 90.5517C62.8243 93.774 63.3431 96.6477 64.3807 99.1728C65.4183 101.698 66.8298 103.838 68.6154 105.593C70.4252 107.325 72.5245 108.648 74.9133 109.561C77.3263 110.475 79.8961 110.932 82.6228 110.932C83.8775 110.932 85.1082 110.776 86.3147 110.463C87.5453 110.151 88.7397 109.73 89.8979 109.201C91.0562 108.648 92.1541 108.01 93.1917 107.289C94.2534 106.543 95.2547 105.75 96.1958 104.908L100.032 110.211ZM91.6715 86.6559C92.2023 87.9064 92.4678 89.205 92.4678 90.5517C92.4678 91.8983 92.2023 93.2089 91.6715 94.4835C91.1647 95.7339 90.465 96.8521 89.5722 97.8381C88.6794 98.8 87.6297 99.5816 86.4232 100.183C85.2409 100.76 83.9741 101.048 82.6228 101.048C81.2715 101.048 79.9927 100.82 78.7862 100.363C77.6038 99.9062 76.5662 99.2329 75.6734 98.3431C74.8047 97.4533 74.117 96.3592 73.6103 95.0606C73.1036 93.738 72.8502 92.235 72.8502 90.5517C72.8502 88.8683 73.1036 87.3774 73.6103 86.0788C74.117 84.7562 74.8047 83.65 75.6734 82.7602C76.5662 81.8704 77.6038 81.1971 78.7862 80.7402C79.9927 80.2833 81.2715 80.0548 82.6228 80.0548C83.9741 80.0548 85.2409 80.3554 86.4232 80.9566C87.6297 81.5338 88.6794 82.3153 89.5722 83.3013C90.465 84.2632 91.1647 85.3814 91.6715 86.6559Z" stroke="white" stroke-width="2" mask="url(#path-1-inside-1_336_1916)"/>
<path d="M120.096 115.008V124.928L125.164 125C127.89 125 130.448 124.483 132.837 123.449C135.226 122.415 137.313 121.008 139.099 119.229C140.908 117.449 142.332 115.369 143.37 112.988C144.407 110.607 144.938 108.058 144.962 105.341V71.578H135.009V92.9324C135.009 93.9664 134.816 94.9764 134.429 95.9624C134.043 96.9243 133.513 97.79 132.837 98.5595C132.161 99.3291 131.365 99.9543 130.448 100.435C129.555 100.892 128.602 101.121 127.589 101.121C126.551 101.121 125.574 100.952 124.657 100.616C123.764 100.279 122.98 99.7739 122.304 99.1006C121.629 98.4032 121.086 97.5495 120.675 96.5395C120.289 95.5055 120.096 94.3031 120.096 92.9324V71.578H110.251V92.9324C110.251 95.6979 110.698 98.1988 111.591 100.435C112.508 102.648 113.75 104.535 115.319 106.098C116.911 107.638 118.757 108.828 120.856 109.67C122.956 110.511 125.2 110.932 127.589 110.932C128.723 110.932 129.845 110.704 130.955 110.247C132.089 109.79 133.199 109.333 134.285 108.876C133.923 109.766 133.452 110.583 132.873 111.329C132.294 112.098 131.618 112.76 130.846 113.313C130.098 113.866 129.278 114.299 128.385 114.611C127.492 114.924 126.563 115.08 125.598 115.08L120.096 115.008Z" stroke="white" stroke-width="2" mask="url(#path-1-inside-1_336_1916)"/>
</g>
<defs>
<filter id="filter0_d_336_1916" x="-4" y="0" width="198" height="133" filterUnits="userSpaceOnUse" color-interpolation-filters="sRGB">
<feFlood flood-opacity="0" result="BackgroundImageFix"/>
<feColorMatrix in="SourceAlpha" type="matrix" values="0 0 0 0 0 0 0 0 0 0 0 0 0 0 0 0 0 0 127 0" result="hardAlpha"/>
<feOffset dy="4"/>
<feGaussianBlur stdDeviation="2"/>
<feComposite in2="hardAlpha" operator="out"/>
<feColorMatrix type="matrix" values="0 0 0 0 0 0 0 0 0 0 0 0 0 0 0 0 0 0 0.25 0"/>
<feBlend mode="normal" in2="BackgroundImageFix" result="effect1_dropShadow_336_1916"/>
<feBlend mode="normal" in="SourceGraphic" in2="effect1_dropShadow_336_1916" result="shape"/>
</filter>
</defs>
</svg>
