<svg width="26" height="26" viewBox="0 0 26 26" fill="none" xmlns="http://www.w3.org/2000/svg">
<path d="M6.42014 15.4656L5.59739 18.537L2.59026 18.6006C1.69158 16.9338 1.18182 15.0266 1.18182 13C1.18182 11.0403 1.65843 9.1922 2.50324 7.56494H2.50389L5.18108 8.05576L6.35385 10.7169C6.10839 11.4325 5.9746 12.2007 5.9746 13C5.9747 13.8675 6.13184 14.6987 6.42014 15.4656Z" fill="#FBBB00"/>
<path d="M24.6117 10.7922C24.7474 11.5071 24.8182 12.2455 24.8182 13C24.8182 13.8461 24.7292 14.6715 24.5598 15.4676C23.9845 18.1767 22.4812 20.5422 20.3987 22.2163L20.3981 22.2156L17.026 22.0436L16.5488 19.0643C17.9306 18.2539 19.0105 16.9857 19.5793 15.4676H13.2598V10.7922H19.6715H24.6117Z" fill="#518EF8"/>
<path d="M20.3981 22.2158L20.3987 22.2164C18.3734 23.8444 15.8006 24.8184 13 24.8184C8.49936 24.8184 4.58639 22.3028 2.59027 18.6009L6.42015 15.4658C7.41818 18.1294 9.98767 20.0256 13 20.0256C14.2948 20.0256 15.5078 19.6755 16.5487 19.0645L20.3981 22.2158Z" fill="#28B446"/>
<path d="M20.5436 3.90265L16.715 7.03706C15.6377 6.3637 14.3643 5.97471 13.0001 5.97471C9.91953 5.97471 7.30199 7.95781 6.35395 10.7169L2.50394 7.565H2.5033C4.47019 3.77279 8.43252 1.18188 13.0001 1.18188C15.8676 1.18188 18.4968 2.20333 20.5436 3.90265Z" fill="#F14336"/>
</svg>
