<svg width="22" height="22" viewBox="0 0 22 22" fill="none" xmlns="http://www.w3.org/2000/svg">
<path d="M3.32761 12.8237C4.10396 9.09561 7.34937 6.44669 11 6.44669C14.6496 6.44669 17.895 9.09561 18.6725 12.8237C18.7033 12.9716 18.7916 13.1013 18.9179 13.1841C19.0443 13.2669 19.1984 13.2962 19.3464 13.2654C19.4943 13.2346 19.6239 13.1463 19.7068 13.0199C19.7896 12.8935 19.8188 12.7394 19.788 12.5915C18.9035 8.35114 15.2039 5.30835 11 5.30835C6.79614 5.30835 3.09652 8.35114 2.21203 12.5915C2.18124 12.7394 2.21047 12.8935 2.2933 13.0199C2.37613 13.1463 2.50577 13.2346 2.65371 13.2654C2.80164 13.2962 2.95575 13.2669 3.08213 13.1841C3.20851 13.1013 3.29681 12.9716 3.32761 12.8237ZM10.9886 8.72338C12.0453 8.72338 13.0587 9.14314 13.8059 9.89032C14.5531 10.6375 14.9728 11.6509 14.9728 12.7076C14.9728 13.7642 14.5531 14.7776 13.8059 15.5248C13.0587 16.272 12.0453 16.6918 10.9886 16.6918C9.93197 16.6918 8.91858 16.272 8.1714 15.5248C7.42421 14.7776 7.00445 13.7642 7.00445 12.7076C7.00445 11.6509 7.42421 10.6375 8.1714 9.89032C8.91858 9.14314 9.93197 8.72338 10.9886 8.72338Z" fill="#6A707C"/>
</svg>
