<svg width="22" height="21" viewBox="0 0 22 21" fill="none" xmlns="http://www.w3.org/2000/svg">
<path fill-rule="evenodd" clip-rule="evenodd" d="M17.4092 10.9247C17.1234 12.2094 17.2888 13.6291 18.2195 14.5598L20.72 17.0602C21.5061 17.8464 21.5061 19.1209 20.72 19.9071C19.9338 20.6932 18.6592 20.6932 17.8731 19.9071L15.8102 17.8442C14.7685 16.8025 13.1365 16.726 11.7369 17.186C8.76775 18.1618 5.3701 17.4693 3.00908 15.1082C-0.332014 11.7672 -0.332014 6.35017 3.00908 3.00908C6.35017 -0.332014 11.7672 -0.332014 15.1082 3.00908C17.2564 5.15728 18.0234 8.16366 17.4092 10.9247ZM12.6678 12.6172C14.6332 10.6519 14.6332 7.46543 12.6678 5.50008C10.7025 3.53473 7.51601 3.53473 5.55066 5.50008C3.58531 7.46543 3.58531 10.6519 5.55066 12.6172C7.51601 14.5826 10.7025 14.5826 12.6678 12.6172Z" fill="white"/>
<path d="M18.2195 14.5598L18.5754 14.2039L18.2195 14.5598ZM17.4092 10.9247L17.9004 11.034V11.034L17.4092 10.9247ZM20.72 17.0602L20.3641 17.4161L20.72 17.0602ZM20.72 19.9071L21.0758 20.2629H21.0758L20.72 19.9071ZM17.8731 19.9071L18.229 19.5512L17.8731 19.9071ZM15.8102 17.8442L15.4544 18.2001H15.4544L15.8102 17.8442ZM11.7369 17.186L11.8941 17.6641L11.7369 17.186ZM3.00908 15.1082L2.65322 15.4641L3.00908 15.1082ZM3.00908 3.00908L2.65322 2.65322L3.00908 3.00908ZM15.1082 3.00908L14.7524 3.36494V3.36494L15.1082 3.00908ZM12.6678 5.50008L12.312 5.85594L12.6678 5.50008ZM5.55066 12.6172L5.1948 12.9731L5.55066 12.6172ZM18.5754 14.2039C17.8122 13.4407 17.6353 12.2256 17.9004 11.034L16.9179 10.8154C16.6114 12.1933 16.7655 13.8174 17.8636 14.9156L18.5754 14.2039ZM21.0758 16.7044L18.5754 14.2039L17.8636 14.9156L20.3641 17.4161L21.0758 16.7044ZM21.0758 20.2629C22.0585 19.2803 22.0585 17.687 21.0758 16.7044L20.3641 17.4161C20.9537 18.0057 20.9537 18.9616 20.3641 19.5512L21.0758 20.2629ZM17.5172 20.2629C18.4999 21.2456 20.0931 21.2456 21.0758 20.2629L20.3641 19.5512C19.7745 20.1408 18.8186 20.1408 18.229 19.5512L17.5172 20.2629ZM15.4544 18.2001L17.5172 20.2629L18.229 19.5512L16.1661 17.4884L15.4544 18.2001ZM11.8941 17.6641C13.1991 17.2352 14.6007 17.3464 15.4544 18.2001L16.1661 17.4884C14.9363 16.2586 13.0738 16.2169 11.5798 16.7079L11.8941 17.6641ZM2.65322 15.4641C5.15364 17.9645 8.75154 18.6969 11.8941 17.6641L11.5798 16.7079C8.78396 17.6268 5.58656 16.974 3.36494 14.7524L2.65322 15.4641ZM2.65322 2.65322C-0.884407 6.19085 -0.884407 11.9265 2.65322 15.4641L3.36494 14.7524C0.220378 11.6078 0.220378 6.50949 3.36494 3.36494L2.65322 2.65322ZM15.4641 2.65322C11.9265 -0.884407 6.19085 -0.884407 2.65322 2.65322L3.36494 3.36494C6.50949 0.220378 11.6078 0.220378 14.7524 3.36494L15.4641 2.65322ZM17.9004 11.034C18.5505 8.11204 17.7391 4.92817 15.4641 2.65322L14.7524 3.36494C16.7738 5.38639 17.4964 8.21529 16.9179 10.8154L17.9004 11.034ZM12.312 5.85594C14.0808 7.62475 14.0808 10.4926 12.312 12.2614L13.0237 12.9731C15.1856 10.8112 15.1856 7.30611 13.0237 5.14422L12.312 5.85594ZM5.90652 5.85594C7.67533 4.08713 10.5431 4.08713 12.312 5.85594L13.0237 5.14422C10.8618 2.98234 7.35669 2.98234 5.1948 5.14422L5.90652 5.85594ZM5.90652 12.2614C4.13771 10.4926 4.13771 7.62475 5.90652 5.85594L5.1948 5.14422C3.03292 7.30611 3.03292 10.8112 5.1948 12.9731L5.90652 12.2614ZM12.312 12.2614C10.5431 14.0302 7.67533 14.0302 5.90652 12.2614L5.1948 12.9731C7.35669 15.135 10.8618 15.135 13.0237 12.9731L12.312 12.2614Z" fill="white"/>
</svg>
