<svg width="15" height="15" viewBox="0 0 15 15" fill="none" xmlns="http://www.w3.org/2000/svg">
<path d="M15 7.5C15 11.6421 11.6421 15 7.5 15C3.35833 15 0 11.6421 0 7.5C0 3.35833 3.35833 0 7.5 0C11.6421 0 15 3.35833 15 7.5Z" fill="#FFCC4D"/>
<path d="M11.8568 7.4155C11.8318 7.35925 11.2322 6.04175 9.99972 6.04175C8.76763 6.04175 8.16763 7.35925 8.14263 7.4155C8.1043 7.50175 8.1293 7.60258 8.20305 7.66175C8.27597 7.72091 8.38055 7.723 8.45722 7.66758C8.46222 7.66383 8.98305 7.29175 9.99972 7.29175C11.0105 7.29175 11.5305 7.65883 11.5422 7.66716C11.5789 7.69466 11.623 7.70841 11.6664 7.70841C11.7122 7.70841 11.7585 7.693 11.7964 7.663C11.8701 7.60383 11.8955 7.50217 11.8568 7.4155ZM6.8568 7.4155C6.8318 7.35925 6.23222 6.04175 4.99972 6.04175C3.76763 6.04175 3.16763 7.35925 3.14263 7.4155C3.1043 7.50175 3.1293 7.60258 3.20263 7.66175C3.27597 7.72091 3.38055 7.723 3.4568 7.66758C3.46222 7.66383 3.98263 7.29175 4.99972 7.29175C6.01055 7.29175 6.53055 7.65883 6.54222 7.66716C6.57888 7.69466 6.62305 7.70841 6.66638 7.70841C6.71222 7.70841 6.75847 7.693 6.79638 7.663C6.87055 7.60383 6.89513 7.50217 6.8568 7.4155ZM7.49972 9.16675C5.99013 9.16675 4.98847 8.99091 3.74972 8.75008C3.4668 8.6955 2.91638 8.75008 2.91638 9.58341C2.91638 11.2501 4.83097 13.3334 7.49972 13.3334C10.168 13.3334 12.083 11.2501 12.083 9.58341C12.083 8.75008 11.5326 8.69508 11.2497 8.75008C10.011 8.99091 9.0093 9.16675 7.49972 9.16675Z" fill="#664500"/>
<path d="M3.75 9.5835C3.75 9.5835 5 10.0002 7.5 10.0002C10 10.0002 11.25 9.5835 11.25 9.5835C11.25 9.5835 10.4167 11.2502 7.5 11.2502C4.58333 11.2502 3.75 9.5835 3.75 9.5835Z" fill="white"/>
<path d="M14.583 4.58341C14.583 5.73425 13.6505 6.66675 12.4997 6.66675C11.3489 6.66675 10.4164 5.73425 10.4164 4.58341C10.4164 3.43258 12.083 0.416748 12.4997 0.416748C12.9164 0.416748 14.583 3.43258 14.583 4.58341Z" fill="#5DADEC"/>
</svg>
